<svg version="1.0" xmlns="http://www.w3.org/2000/svg" viewBox="0 0 10000 10000" preserveAspectRatio="xMidYMid meet">
<g id="layer101" fill="#000000" stroke="none">
</g>
<g id="layer102" fill="#ffffff" stroke="none">
<path d="M1222 9240 c-156 -23 -292 -158 -322 -320 -7 -37 -9 -1358 -8 -3995 3 -3749 4 -3942 21 -3985 45 -113 142 -209 250 -247 50 -17 219 -18 3837 -18 3618 0 3787 1 3837 18 108 38 205 134 250 247 17 43 18 236 21 3980 1 2592 -1 3953 -8 3989 -32 174 -168 306 -341 331 -78 12 -7459 11 -7537 0z m7594 -107 c67 -23 154 -110 177 -177 16 -46 17 -330 17 -3996 0 -3666 -1 -3950 -17 -3996 -23 -67 -110 -154 -177 -177 -46 -16 -319 -17 -3825 -17 l-3776 0 -50 24 c-73 34 -110 69 -144 138 l-31 61 0 3957 c0 3675 1 3960 17 4006 22 64 110 154 173 177 41 14 400 15 3816 16 3502 1 3774 0 3820 -16z"/>
<path d="M2547 8380 c-238 -60 -350 -355 -224 -593 36 -68 90 -119 167 -156 49 -23 67 -26 160 -26 94 0 111 3 160 27 30 15 71 43 90 63 l34 35 -52 52 -51 52 -28 -26 c-51 -47 -90 -60 -164 -56 -56 3 -76 9 -111 33 -143 101 -121 365 37 436 79 36 178 19 240 -41 l31 -30 48 49 c41 41 46 52 37 68 -14 27 -72 70 -128 95 -53 23 -185 33 -246 18z"/>
<path d="M4147 8370 c-238 -60 -350 -355 -224 -593 36 -68 90 -119 167 -156 49 -23 67 -26 160 -26 94 0 111 3 160 27 30 15 71 43 90 63 l34 35 -52 52 -51 52 -28 -26 c-51 -47 -90 -60 -164 -56 -56 3 -76 9 -111 33 -143 101 -121 365 37 436 79 36 178 19 240 -41 l31 -30 48 49 c41 41 46 52 37 68 -14 27 -72 70 -128 95 -53 23 -185 33 -246 18z"/>
<path d="M3070 7985 l0 -385 80 0 80 0 2 246 3 247 164 -247 164 -246 74 0 73 0 0 385 0 385 -75 0 -75 0 0 -245 c0 -135 -4 -245 -8 -245 -5 0 -82 110 -172 245 l-163 245 -74 0 -73 0 0 -385z"/>
<path d="M4818 8058 l-3 -313 -107 -3 -108 -3 0 -69 0 -70 300 0 300 0 0 70 0 70 -110 0 -110 0 0 315 0 315 -80 0 -80 0 -2 -312z"/>
<path d="M5340 7985 l0 -385 260 0 260 0 0 70 0 70 -180 0 -180 0 0 85 0 85 160 0 160 0 0 70 0 70 -160 0 -160 0 0 90 0 90 190 0 190 0 0 70 0 70 -270 0 -270 0 0 -385z"/>
<path d="M6040 7985 l0 -386 66 3 67 3 126 232 c69 128 130 231 134 230 4 -1 64 -106 132 -232 l124 -230 65 -3 66 -3 0 386 0 385 -70 0 -70 0 0 -219 c0 -121 -4 -222 -9 -225 -5 -4 -53 76 -108 176 -97 181 -98 183 -133 186 l-35 2 -100 -182 -100 -183 -3 223 -2 222 -75 0 -75 0 0 -385z"/>
<path d="M7030 7985 l0 -385 80 0 80 0 2 246 3 247 164 -247 164 -246 74 0 73 0 0 385 0 385 -75 0 -75 0 0 -245 c0 -135 -4 -245 -8 -245 -5 0 -82 110 -172 245 l-163 245 -74 0 -73 0 0 -385z"/>
<path d="M1592 7161 c-9 -5 -12 -27 -10 -71 3 -63 3 -63 38 -75 78 -26 99 -107 109 -419 l6 -201 268 -3 267 -2 0 385 0 385 -80 0 -80 0 0 -315 0 -315 -120 0 -120 0 0 28 c0 15 -5 97 -10 182 -15 267 -50 373 -133 411 -44 19 -112 25 -135 10z"/>
<path d="M2689 7157 c-103 -29 -185 -103 -237 -214 -24 -52 -27 -69 -27 -169 0 -107 1 -112 38 -186 42 -86 89 -133 177 -176 49 -24 66 -27 160 -27 93 0 111 3 160 26 85 41 135 90 177 177 37 73 38 79 38 181 -1 134 -23 196 -101 280 -72 79 -149 113 -259 118 -45 1 -100 -3 -126 -10z m194 -151 c46 -20 104 -84 122 -135 33 -94 11 -211 -52 -276 -46 -48 -88 -65 -158 -65 -71 0 -126 27 -165 82 -39 54 -53 109 -47 183 7 94 54 167 132 208 37 20 125 22 168 3z"/>
<path d="M4557 7160 c-238 -60 -350 -355 -224 -593 36 -68 90 -119 167 -156 49 -23 67 -26 160 -26 94 0 111 3 160 27 30 15 71 43 90 63 l34 35 -52 52 -51 52 -28 -26 c-51 -47 -90 -60 -164 -56 -56 3 -76 9 -111 33 -143 101 -121 365 37 436 79 36 178 19 240 -41 l31 -30 48 49 c41 41 46 52 37 68 -14 27 -72 70 -128 95 -53 23 -185 33 -246 18z"/>
<path d="M3350 6775 l0 -385 245 0 245 0 0 70 0 70 -172 0 -171 0 6 315 7 315 -80 0 -80 0 0 -385z"/>
<path d="M3970 6775 l0 -385 80 0 80 0 0 385 0 385 -80 0 -80 0 0 -385z"/>
<path d="M5228 6848 l-3 -313 -107 -3 -108 -3 0 -69 0 -70 300 0 300 0 0 70 0 70 -110 0 -110 0 0 315 0 315 -80 0 -80 0 -2 -312z"/>
<path d="M5750 6775 l0 -385 80 0 80 0 2 246 3 247 164 -247 164 -246 74 0 73 0 0 385 0 385 -75 0 -75 0 0 -245 c0 -135 -4 -245 -8 -245 -5 0 -82 110 -172 245 l-163 245 -74 0 -73 0 0 -385z"/>
<path d="M6990 7021 l0 -139 -47 15 c-62 19 -176 22 -235 4 -64 -18 -120 -69 -148 -133 -20 -46 -24 -74 -28 -215 l-5 -163 82 0 81 0 0 130 c0 143 9 178 55 220 24 22 35 25 103 25 43 0 91 -6 110 -14 l32 -13 0 -174 0 -174 80 0 80 0 0 385 0 385 -80 0 -80 0 0 -139z"/>
<path d="M7360 6775 l0 -385 80 0 80 0 0 155 0 156 158 -3 157 -3 3 -152 3 -153 79 0 80 0 0 385 0 385 -80 0 -80 0 0 -160 0 -160 -160 0 -160 0 0 160 0 160 -80 0 -80 0 0 -385z"/>
<path d="M8200 6775 l0 -385 80 0 80 0 0 385 0 385 -80 0 -80 0 0 -385z"/>
<path d="M1436 5959 c-27 -4 -52 -11 -56 -16 -5 -4 0 -36 11 -70 l19 -61 58 5 c55 5 61 4 95 -27 20 -18 37 -37 37 -42 0 -6 -64 -130 -142 -276 -79 -147 -144 -272 -146 -279 -3 -10 18 -13 88 -13 l92 0 99 205 c55 113 103 204 107 201 4 -2 52 -95 107 -205 l100 -201 82 0 c46 0 83 3 83 7 0 19 -347 648 -376 682 -37 43 -118 87 -174 93 -19 3 -57 1 -84 -3z"/>
<path d="M6270 5947 c-115 -33 -205 -105 -257 -207 -26 -51 -28 -63 -28 -175 0 -112 2 -124 28 -175 53 -104 155 -183 268 -209 141 -33 320 9 399 94 23 24 23 25 4 46 -10 12 -36 35 -56 51 l-38 29 -37 -29 c-121 -94 -308 -59 -374 70 -65 128 -11 292 115 349 81 37 197 20 264 -36 l37 -33 53 49 c28 26 52 52 52 57 0 17 -93 82 -149 103 -70 27 -215 35 -281 16z"/>
<path d="M2200 5565 l0 -385 85 0 85 0 0 155 0 155 65 0 65 0 101 -155 101 -155 90 0 c68 0 88 3 82 13 -4 6 -58 87 -121 179 -62 92 -113 172 -113 177 0 6 56 96 125 201 69 105 125 193 125 195 0 3 -44 5 -97 5 l-98 0 -100 -155 -100 -155 -62 0 -63 0 0 155 0 155 -85 0 -85 0 0 -385z"/>
<path d="M3020 5564 l0 -386 218 4 c258 6 289 13 367 92 60 60 80 115 73 205 -8 114 -80 203 -191 236 -29 9 -107 18 -174 22 l-123 6 0 104 0 103 -85 0 -85 0 0 -386z m354 26 c115 -19 161 -108 107 -209 -21 -39 -69 -54 -183 -59 l-108 -5 0 135 c0 74 3 138 7 141 9 10 109 8 177 -3z"/>
<path d="M3736 5893 c14 -32 91 -205 171 -385 l146 -328 87 0 87 0 168 378 c93 207 170 380 172 385 2 4 -38 7 -89 7 l-93 0 -34 -85 -34 -85 -180 2 -180 3 -35 83 -35 82 -88 0 -89 0 26 -57z m524 -247 c0 -8 -113 -272 -119 -279 -7 -7 -122 255 -121 276 0 7 240 11 240 3z"/>
<path d="M4700 5565 l0 -385 90 0 90 0 0 385 0 385 -90 0 -90 0 0 -385z"/>
<path d="M5100 5565 l0 -385 85 0 84 0 3 153 3 152 175 0 175 0 3 -152 3 -153 84 0 85 0 0 385 0 385 -85 0 -84 0 -3 -157 -3 -158 -177 -3 -178 -2 0 160 0 160 -85 0 -85 0 0 -385z"/>
<path d="M6870 5566 l0 -386 85 0 84 0 3 128 3 127 160 5 c175 6 213 17 270 77 82 88 64 283 -33 363 -67 55 -105 63 -349 68 l-223 4 0 -386z m403 240 c50 -21 70 -50 75 -109 4 -46 1 -57 -23 -85 -34 -40 -77 -52 -192 -52 l-93 0 0 130 0 130 100 0 c63 0 113 -5 133 -14z"/>
<path d="M7690 5565 l0 -385 85 0 85 0 0 155 0 155 65 0 65 0 101 -155 101 -155 90 0 c68 0 88 3 82 13 -4 6 -58 87 -121 179 -62 92 -113 172 -113 177 0 6 56 96 125 201 69 105 125 193 125 195 0 3 -44 5 -97 5 l-98 0 -100 -155 -100 -155 -62 0 -63 0 0 155 0 155 -85 0 -85 0 0 -385z"/>
<path d="M8510 5565 l0 -385 85 0 85 0 0 385 0 385 -85 0 -85 0 0 -385z"/>
<path d="M4629 5091 c-52 -42 -17 -131 52 -131 66 0 95 88 43 129 -33 26 -65 27 -95 2z"/>
<path d="M4850 5090 c-24 -24 -27 -82 -4 -104 59 -60 155 0 123 76 -21 50 -82 65 -119 28z"/>
<path d="M1480 4661 c-71 -15 -128 -60 -166 -131 -18 -34 -19 -94 -19 -1660 l0 -1625 22 -40 c25 -47 64 -85 113 -111 34 -18 140 -19 3570 -19 3430 0 3536 1 3570 19 49 26 88 64 113 111 l22 40 0 1620 0 1620 -31 55 c-36 65 -107 114 -180 124 -64 8 -6970 5 -7014 -3z m4770 -672 c180 -21 374 -78 557 -164 88 -42 115 -59 127 -83 31 -60 10 -139 -44 -167 -50 -26 -96 -18 -209 34 -127 59 -311 114 -439 131 -124 17 -350 8 -457 -19 -204 -51 -409 -135 -860 -356 -143 -69 -294 -140 -335 -157 -446 -181 -824 -217 -1160 -110 -174 55 -344 153 -633 364 -51 37 -96 68 -102 68 -5 -1 -40 -42 -76 -93 -37 -51 -179 -209 -319 -355 l-251 -262 301 -315 c166 -173 306 -315 311 -315 5 0 9 166 9 381 0 421 0 422 67 457 51 28 89 16 208 -63 76 -50 340 -185 363 -185 10 0 12 -7 9 -22 -3 -13 -13 -66 -22 -118 -10 -52 -20 -98 -24 -103 -9 -9 -146 45 -260 102 -44 23 -85 41 -91 41 -7 0 -10 -123 -10 -364 0 -390 -2 -407 -52 -452 -12 -12 -34 -27 -47 -34 -35 -18 -111 -16 -148 3 -39 20 -840 854 -865 900 -23 41 -23 123 0 164 22 41 826 879 866 904 37 23 115 25 154 5 15 -8 61 -49 102 -91 194 -198 453 -354 685 -412 107 -26 328 -23 475 6 214 42 382 105 705 261 495 240 681 319 886 374 191 52 390 68 579 45z m1037 -84 c43 -18 40 -15 502 -498 204 -214 378 -402 387 -419 22 -42 15 -136 -12 -170 -64 -81 -840 -879 -869 -892 -41 -20 -105 -21 -150 -2 -19 8 -80 54 -137 101 -125 106 -319 236 -448 300 -233 117 -397 159 -615 158 -164 0 -250 -16 -404 -74 -123 -46 -183 -78 -466 -247 -391 -234 -625 -335 -891 -384 -99 -18 -155 -21 -334 -21 -243 0 -350 15 -569 78 -167 48 -206 66 -226 106 -26 49 -15 114 24 151 48 45 74 45 212 0 219 -71 322 -87 569 -87 241 0 314 11 498 71 178 58 283 112 707 364 284 169 476 246 697 281 100 15 377 6 478 -16 260 -57 575 -211 824 -403 34 -26 86 -66 118 -89 l56 -42 50 67 c27 37 178 201 336 365 157 163 286 301 286 305 0 9 -587 626 -601 630 -5 2 -9 -138 -9 -355 0 -337 -1 -360 -20 -390 -23 -38 -64 -61 -125 -70 -41 -5 -52 -1 -133 45 -126 73 -312 161 -425 202 -111 40 -104 27 -82 170 8 52 15 98 15 103 0 4 7 7 15 7 29 0 241 -83 374 -146 74 -35 135 -64 137 -64 2 0 5 180 6 399 l3 400 29 30 c44 46 130 62 193 36z m-1115 -571 c67 -9 127 -20 132 -24 9 -9 -16 -225 -27 -237 -3 -2 -52 3 -109 13 -63 10 -165 18 -263 18 l-159 2 -20 113 c-16 96 -17 114 -5 122 23 14 318 10 451 -7z m-682 -37 c0 -2 9 -54 20 -117 12 -62 19 -113 18 -114 -2 -1 -62 -21 -134 -45 -72 -23 -186 -69 -254 -102 -68 -33 -124 -58 -125 -57 -9 11 -75 202 -75 217 0 27 198 119 405 187 88 29 145 41 145 31z m-711 -429 c40 -107 41 -113 24 -126 -36 -26 -360 -181 -430 -206 l-72 -25 -10 37 c-27 106 -42 194 -35 201 5 4 45 22 89 40 44 17 148 67 230 110 83 44 153 80 156 80 4 1 25 -49 48 -111z m-1089 -179 c77 -9 285 -7 331 4 7 1 23 -47 38 -115 23 -98 25 -118 13 -123 -23 -9 -283 -25 -322 -20 -19 2 -80 9 -136 16 -55 6 -107 14 -114 19 -10 6 -9 30 10 125 l23 117 31 -6 c17 -4 73 -11 126 -17z"/>
</g>


</svg>