<?xml version="1.0" encoding="UTF-8"?> <svg xmlns="http://www.w3.org/2000/svg"
  xmlns:xlink="http://www.w3.org/1999/xlink" viewBox="0 0 77 77" fill="#000">
  <defs>
    <path id="a" d="M0 0h62v62H0z"></path>
  </defs>
  <clipPath id="b">
    <use xlink:href="#a" overflow="visible"></use>
  </clipPath>
  <g clip-path="url(#b)">
    <path
      d="M16.5 10.3c0-3.4-2.8-6.2-6.2-6.2-3.4 0-6.2 2.8-6.2 6.2 0 3.4 2.8 6.2 6.2 6.2 3.5 0 6.2-2.7 6.2-6.2zm-10.3 0c0-2.3 1.9-4.1 4.1-4.1 2.3 0 4.1 1.9 4.1 4.1 0 2.3-1.9 4.1-4.1 4.1-1.1 0-2.1-.4-2.9-1.2-.8-.7-1.2-1.8-1.2-2.9z">
    </path>
    <path
      d="M51.7 28.9c-5.6-.1-10.2 4.4-10.3 10 0 4.4 2.9 9.6 5.5 13.3-2.8.7-4.7 2-5.3 3.6H9.3c-4 0-7.2-3.2-7.2-7.2s3.2-7.2 7.2-7.2H30c4 0 7.2-3.2 7.2-7.2S34 26.9 30 26.9h-9.5c-.6-1.6-2.5-2.9-5.3-3.6 2.6-3.8 5.5-8.9 5.5-13.3-.1-5.6-4.8-10.1-10.4-10C4.7-.1.1 4.4 0 10c0 4.4 2.9 9.6 5.5 13.3-3.4.9-5.5 2.6-5.5 4.6 0 2.9 4.4 5.2 10.3 5.2 5.2 0 9.2-1.7 10.1-4.1H30c2.9 0 5.2 2.3 5.2 5.2s-2.3 5.2-5.2 5.2H9.3c-5.1 0-9.3 4.2-9.3 9.3C0 53.8 4.2 58 9.3 58h32.2c.9 2.4 5 4.1 10.1 4.1 5.9 0 10.3-2.2 10.3-5.2 0-2-2.1-3.7-5.5-4.6 2.6-3.8 5.5-8.9 5.5-13.3 0-5.7-4.6-10.2-10.2-10.1zM2.1 10c.1-4.5 3.8-8 8.3-7.9 4.5-.1 8.2 3.5 8.3 7.9 0 5.8-6.1 13.7-8.3 16.3C8.1 23.7 2.1 15.8 2.1 10zm8.2 21c-5 0-8.3-1.8-8.3-3.1 0-.9 1.7-2.2 4.7-2.8.5.7.9 1.2 1.3 1.7h-.8c-.6 0-1 .5-1 1s.5 1 1 1h6.2c.6 0 1-.5 1-1s-.5-1-1-1h-.9c.4-.5.8-1.1 1.3-1.7 3.1.6 4.7 1.8 4.7 2.8.1 1.3-3.1 3.1-8.2 3.1zm49.6 25.8c0 1.3-3.2 3.1-8.3 3.1s-8.3-1.8-8.3-3.1c0-.9 1.7-2.2 4.7-2.8.5.7.9 1.2 1.3 1.7h-.9c-.6 0-1 .5-1 1 0 .6.5 1 1 1h6.2c.6 0 1-.5 1-1 0-.6-.5-1-1-1h-.9c.4-.5.8-1.1 1.3-1.7 3.3.7 4.9 1.9 4.9 2.8zm-8.2-1.6c-2.2-2.6-8.3-10.5-8.3-16.3.2-4.4 3.8-7.9 8.3-7.9s8.1 3.5 8.3 7.9c-.1 5.9-6.2 13.7-8.3 16.3z">
    </path>
    <path
      d="M51.7 33.1c-3.4 0-6.2 2.8-6.2 6.2 0 3.4 2.8 6.2 6.2 6.2 3.4 0 6.2-2.8 6.2-6.2 0-3.5-2.8-6.2-6.2-6.2zm0 10.3c-2.3 0-4.1-1.9-4.1-4.1 0-2.3 1.9-4.1 4.1-4.1 2.3 0 4.1 1.9 4.1 4.1 0 2.2-1.9 4.1-4.1 4.1z">
    </path>
  </g>
</svg>
