<?xml version="1.0" encoding="UTF-8"?> <svg xmlns="http://www.w3.org/2000/svg" viewBox="0 0 77 77" fill="#000"><path d="M65.7 29l-7.1-6.8v-8.4c0-2.9-2.4-5.3-5.3-5.3h-8.9l-5.2-5c-.4-.4-1.1-.4-1.5 0l-5.2 5H19.2c-2.9 0-5.3 2.4-5.3 5.3v4.3c0 .6.5 1.1 1.1 1.1h3.2v3L11 29c-.2.2-.3.5-.3.8v31.9c0 .6.5 1.1 1.1 1.1H65c.6 0 1.1-.5 1.1-1.1V29.8c-.1-.3-.2-.6-.4-.8zm-7.2-3.8l3.7 3.6h-3.7v-3.6zm0 5.7h3.1l-3.1 2.2v-2.2zM50 18.1v-4.3c0-1.8 1.4-3.2 3.2-3.2s3.2 1.4 3.2 3.2v20.8l-18.1 13-18.1-13V19.2H49c.6 0 1-.5 1-1.1zM38.3 5.7l2.9 2.8h-5.8l2.9-2.8zM16 17v-3.2c0-1.8 1.4-3.2 3.2-3.2H49c-.7.9-1.1 2-1.1 3.2V17H16zm2.1 8.2v3.6h-3.7l3.7-3.6zm0 5.7v2.2L15 30.9h3.1zm-5.3 1l20.6 14.8-20.6 13.1V31.9zm2.6 28.8L35.2 48l2.5 1.8c.4.3.9.3 1.2 0l2.5-1.8 19.9 12.6H15.4zm48.5-.9L43.3 46.7l20.6-14.8v27.9z"></path><path d="M26.6 28.7h21.3v2.1H26.6v-2.1zM26.6 24.5h21.3v2.1H26.6v-2.1zM26.6 33h21.3v2.1H26.6V33zM0 17h10.6v2.1H0V17zM3.2 21.3h11.7v2.1H3.2v-2.1z"></path></svg> 