<?xml version="1.0" encoding="UTF-8"?> <svg xmlns="http://www.w3.org/2000/svg" viewBox="0 0 77 77" fill="#000">
  <g clip-path="url(#clip0)">
    <path
      d="M69.47 29.828L51.334 27.41v-1.444c0-.708-.575-1.283-1.284-1.283h-38.5c-.709 0-1.283.575-1.283 1.283v3.85H1.283a1.283 1.283 0 000 2.567h8.984v2.567H3.85a1.283 1.283 0 000 2.566h6.417v21.817c0 .709.574 1.284 1.283 1.284h1.283a6.417 6.417 0 0012.834 0h29.517a6.417 6.417 0 0012.833 0H69.3c.709 0 1.284-.575 1.284-1.284V31.1c0-.643-.477-1.187-1.114-1.272zM19.25 64.467a3.85 3.85 0 110-7.7 3.85 3.85 0 010 7.7zm29.517-6.417H46.2V38.8a1.283 1.283 0 00-2.567 0v19.25h-18.51a6.404 6.404 0 00-11.746 0h-.544V37.517h3.85a1.283 1.283 0 000-2.567h-3.85v-2.567h3.85a1.283 1.283 0 000-2.567h-3.85V27.25h35.934v30.8zM61.6 64.467a3.85 3.85 0 110-7.7 3.85 3.85 0 010 7.7zm6.417-19.25h-7.7V42.65h7.7v2.567zm0-5.134h-8.983c-.71 0-1.284.575-1.284 1.284V46.5c0 .709.575 1.283 1.284 1.283h8.983V58.05h-.544a6.404 6.404 0 00-11.745 0h-4.395V37.517h16.684v2.566zm0-5.133H51.334V30l16.683 2.224v2.726z"
      stroke-width=".5"></path>
    <path
      d="M19.25 63.183a2.567 2.567 0 100-5.133 2.567 2.567 0 000 5.133zM61.6 63.183a2.567 2.567 0 100-5.133 2.567 2.567 0 000 5.133z"
      stroke-width=".7"></path>
    <path
      d="M76.625 14.792l-6.417-6.416a1.283 1.283 0 00-2.19.907v2.567h-15.4c-.71 0-1.284.574-1.284 1.283v5.133c0 .71.575 1.284 1.283 1.284h15.4v2.566a1.283 1.283 0 002.191.908l6.417-6.417a1.283 1.283 0 000-1.815zm-6.04 4.226v-.752c0-.708-.576-1.283-1.284-1.283H53.9v-2.567h15.4c.708 0 1.283-.574 1.283-1.283v-.752l3.319 3.319-3.319 3.319zM47.484 11.85H37.217a1.283 1.283 0 000 2.566h10.267a1.283 1.283 0 000-2.566zM47.483 16.983H42.35a1.283 1.283 0 000 2.567h5.133a1.283 1.283 0 000-2.567z"
      stroke-width=".5"></path>
    <path
      d="M44.917 29.816c-.709 0-1.283.575-1.283 1.284v2.566a1.283 1.283 0 002.566 0V31.1c0-.709-.574-1.284-1.283-1.284z"
      stroke-width=".7"></path>
  </g>
</svg>
